# This file uses centimeters as units for non-parametric coordinates.

mtllib magnetModel.mtl
g default
v 0.644502 -0.335739 0.348087
v 1.355693 -0.335739 0.348087
v 0.644502 1.364554 0.348087
v 1.355693 1.364554 0.348087
v 0.644502 1.364554 -0.156025
v 1.355693 1.364554 -0.156025
v 0.644502 -0.335739 -0.156025
v 1.355693 -0.335739 -0.156025
v -1.381513 -0.335739 0.348087
v -0.670322 -0.335739 0.348087
v -1.381513 1.364554 0.348087
v -0.670322 1.364554 0.348087
v -1.381513 1.364554 -0.156025
v -0.670322 1.364554 -0.156025
v -1.381513 -0.335739 -0.156025
v -0.670322 -0.335739 -0.156025
v 1.350685 -0.506435 0.348087
v 0.640521 -0.479213 0.348087
v 0.640521 -0.479213 -0.156025
v 1.350685 -0.506435 -0.156025
v 1.313470 -0.719428 0.348087
v 0.621680 -0.566631 0.348087
v 0.621680 -0.566631 -0.156025
v 1.313470 -0.719428 -0.156025
v 1.210306 -0.951342 0.348087
v 0.592275 -0.609317 0.348087
v 0.592275 -0.609317 -0.156025
v 1.210306 -0.951342 -0.156025
v 1.032892 -1.156554 0.348087
v 0.547854 -0.642687 0.348087
v 0.547854 -0.642687 -0.156025
v 1.032892 -1.156554 -0.156025
v 0.803927 -1.308053 0.348087
v 0.466877 -0.685409 0.348087
v 0.466877 -0.685409 -0.156025
v 0.803927 -1.308053 -0.156025
v 0.546008 -1.407516 0.348087
v 0.339037 -0.729312 0.348087
v 0.339037 -0.729312 -0.156025
v 0.546008 -1.407516 -0.156025
v 0.270925 -1.463782 0.348087
v 0.173178 -0.760921 0.348087
v 0.173178 -0.760921 -0.156025
v 0.270925 -1.463782 -0.156025
v -0.012910 -1.482044 0.348087
v -0.012910 -0.772259 0.348087
v -0.012910 -0.772259 -0.156025
v -0.012910 -1.482044 -0.156025
v -0.296746 -1.463782 0.348087
v -0.198999 -0.760921 0.348087
v -0.198999 -0.760921 -0.156025
v -0.296746 -1.463782 -0.156025
v -0.571829 -1.407516 0.348087
v -0.364858 -0.729312 0.348087
v -0.364858 -0.729312 -0.156025
v -0.571829 -1.407516 -0.156025
v -0.829748 -1.308053 0.348087
v -0.492698 -0.685409 0.348087
v -0.492698 -0.685409 -0.156025
v -0.829748 -1.308053 -0.156025
v -1.058712 -1.156554 0.348087
v -0.573675 -0.642687 0.348087
v -0.573675 -0.642687 -0.156025
v -1.058712 -1.156554 -0.156025
v -1.236126 -0.951342 0.348087
v -0.618096 -0.609317 0.348087
v -0.618096 -0.609317 -0.156025
v -1.236126 -0.951342 -0.156025
v -1.339291 -0.719428 0.348087
v -0.647500 -0.566631 0.348087
v -0.647500 -0.566631 -0.156025
v -1.339291 -0.719428 -0.156025
v -1.376505 -0.506435 0.348087
v -0.666341 -0.479213 0.348087
v -0.666341 -0.479213 -0.156025
v -1.376505 -0.506435 -0.156025
v -1.383325 1.343113 0.348592
v -0.667724 1.343113 0.348592
v -1.383325 1.676393 0.348592
v -0.667724 1.676393 0.348592
v -1.383325 1.676393 -0.156530
v -0.667724 1.676393 -0.156530
v -1.383325 1.343113 -0.156530
v -0.667724 1.343113 -0.156530
v 0.641003 1.343113 0.348592
v 1.356603 1.343113 0.348592
v 0.641003 1.676393 0.348592
v 1.356603 1.676393 0.348592
v 0.641003 1.676393 -0.156530
v 1.356603 1.676393 -0.156530
v 0.641003 1.343113 -0.156530
v 1.356603 1.343113 -0.156530
vt 0.375000 0.000000
vt 0.625000 0.000000
vt 0.625000 0.250000
vt 0.375000 0.250000
vt 0.625000 0.500000
vt 0.375000 0.500000
vt 0.625000 0.750000
vt 0.375000 0.750000
vt 0.875000 0.000000
vt 0.875000 0.250000
vt 0.125000 0.000000
vt 0.125000 0.250000
vt 0.375000 0.000000
vt 0.625000 0.000000
vt 0.625000 0.250000
vt 0.375000 0.250000
vt 0.625000 0.500000
vt 0.375000 0.500000
vt 0.625000 0.750000
vt 0.375000 0.750000
vt 0.875000 0.000000
vt 0.875000 0.250000
vt 0.125000 0.000000
vt 0.125000 0.250000
vt 0.390625 0.000000
vt 0.609375 0.000000
vt 0.828125 0.000000
vt 0.609375 0.750000
vt 0.390625 0.750000
vt 0.171875 0.000000
vt 0.390625 0.000000
vt 0.609375 0.000000
vt 0.171875 0.000000
vt 0.609375 0.750000
vt 0.390625 0.750000
vt 0.828125 0.000000
vt 0.406250 0.000000
vt 0.593750 0.000000
vt 0.218750 0.000000
vt 0.593750 0.750000
vt 0.406250 0.750000
vt 0.781250 0.000000
vt 0.421875 0.000000
vt 0.578125 0.000000
vt 0.265625 0.000000
vt 0.578125 0.750000
vt 0.421875 0.750000
vt 0.734375 0.000000
vt 0.437500 0.000000
vt 0.562500 0.000000
vt 0.312500 0.000000
vt 0.562500 0.750000
vt 0.437500 0.750000
vt 0.687500 0.000000
vt 0.453125 0.000000
vt 0.546875 0.000000
vt 0.359375 0.000000
vt 0.546875 0.750000
vt 0.453125 0.750000
vt 0.640625 0.000000
vt 0.468750 0.000000
vt 0.531250 0.000000
vt 0.406250 0.000000
vt 0.531250 0.750000
vt 0.468750 0.750000
vt 0.593750 0.000000
vt 0.484375 0.000000
vt 0.515625 0.000000
vt 0.453125 0.000000
vt 0.515625 0.750000
vt 0.484375 0.750000
vt 0.546875 0.000000
vt 0.500000 0.000000
vt 0.500000 0.000000
vt 0.500000 0.000000
vt 0.500000 0.750000
vt 0.500000 0.750000
vt 0.500000 0.000000
vt 0.515625 0.000000
vt 0.484375 0.000000
vt 0.546875 0.000000
vt 0.484375 0.750000
vt 0.515625 0.750000
vt 0.453125 0.000000
vt 0.531250 0.000000
vt 0.468750 0.000000
vt 0.593750 0.000000
vt 0.468750 0.750000
vt 0.531250 0.750000
vt 0.406250 0.000000
vt 0.546875 0.000000
vt 0.453125 0.000000
vt 0.640625 0.000000
vt 0.453125 0.750000
vt 0.546875 0.750000
vt 0.359375 0.000000
vt 0.562500 0.000000
vt 0.437500 0.000000
vt 0.687500 0.000000
vt 0.437500 0.750000
vt 0.562500 0.750000
vt 0.312500 0.000000
vt 0.578125 0.000000
vt 0.421875 0.000000
vt 0.734375 0.000000
vt 0.421875 0.750000
vt 0.578125 0.750000
vt 0.265625 0.000000
vt 0.593750 0.000000
vt 0.406250 0.000000
vt 0.781250 0.000000
vt 0.406250 0.750000
vt 0.593750 0.750000
vt 0.218750 0.000000
vt 0.375000 0.000000
vt 0.625000 0.000000
vt 0.625000 0.250000
vt 0.375000 0.250000
vt 0.625000 0.500000
vt 0.375000 0.500000
vt 0.625000 0.750000
vt 0.375000 0.750000
vt 0.625000 1.000000
vt 0.375000 1.000000
vt 0.875000 0.000000
vt 0.875000 0.250000
vt 0.125000 0.000000
vt 0.125000 0.250000
vt 0.375000 0.000000
vt 0.625000 0.000000
vt 0.625000 0.250000
vt 0.375000 0.250000
vt 0.625000 0.500000
vt 0.375000 0.500000
vt 0.625000 0.750000
vt 0.375000 0.750000
vt 0.625000 1.000000
vt 0.375000 1.000000
vt 0.875000 0.000000
vt 0.875000 0.250000
vt 0.125000 0.000000
vt 0.125000 0.250000
vn 0.000000 0.000000 1.000000
vn 0.000000 0.000000 1.000000
vn 0.000000 0.000000 1.000000
vn 0.000000 0.000000 1.000000
vn 0.000000 1.000000 0.000000
vn 0.000000 1.000000 0.000000
vn 0.000000 1.000000 0.000000
vn 0.000000 1.000000 0.000000
vn 0.000000 0.000000 -1.000000
vn 0.000000 0.000000 -1.000000
vn 0.000000 0.000000 -1.000000
vn 0.000000 0.000000 -1.000000
vn 1.000000 0.000000 0.000000
vn 1.000000 0.000000 0.000000
vn 1.000000 0.000000 0.000000
vn 1.000000 0.000000 0.000000
vn -1.000000 0.000000 0.000000
vn -1.000000 0.000000 0.000000
vn -1.000000 0.000000 0.000000
vn -1.000000 0.000000 0.000000
vn 0.000000 0.000000 1.000000
vn 0.000000 0.000000 1.000000
vn 0.000000 0.000000 1.000000
vn 0.000000 0.000000 1.000000
vn 0.000000 1.000000 0.000000
vn 0.000000 1.000000 0.000000
vn 0.000000 1.000000 0.000000
vn 0.000000 1.000000 0.000000
vn 0.000000 0.000000 -1.000000
vn 0.000000 0.000000 -1.000000
vn 0.000000 0.000000 -1.000000
vn 0.000000 0.000000 -1.000000
vn 1.000000 0.000000 0.000000
vn 1.000000 0.000000 0.000000
vn 1.000000 0.000000 0.000000
vn 1.000000 0.000000 0.000000
vn -1.000000 0.000000 0.000000
vn -1.000000 0.000000 0.000000
vn -1.000000 0.000000 0.000000
vn -1.000000 0.000000 0.000000
vn 0.000000 0.000000 1.000000
vn 0.000000 0.000000 1.000000
vn 0.000000 0.000000 1.000000
vn 0.000000 0.000000 1.000000
vn 0.995151 0.098364 0.000000
vn 0.995151 0.098364 0.000000
vn 0.999615 0.027735 0.000000
vn 0.999615 0.027735 0.000000
vn -0.000000 0.000000 -1.000000
vn -0.000000 0.000000 -1.000000
vn -0.000000 0.000000 -1.000000
vn -0.000000 0.000000 -1.000000
vn -0.994000 -0.109382 0.000000
vn -0.994000 -0.109382 0.000000
vn -0.999570 -0.029324 0.000000
vn -0.999570 -0.029324 0.000000
vn 0.000000 0.000000 1.000000
vn 0.000000 0.000000 1.000000
vn 0.000000 0.000000 1.000000
vn 0.000000 0.000000 1.000000
vn -0.999615 0.027735 0.000000
vn -0.999615 0.027735 0.000000
vn -0.995151 0.098363 0.000000
vn -0.995151 0.098363 0.000000
vn 0.000000 0.000000 -1.000000
vn 0.000000 0.000000 -1.000000
vn -0.000000 0.000000 -1.000000
vn -0.000000 0.000000 -1.000000
vn 0.999570 -0.029324 0.000000
vn 0.999570 -0.029324 0.000000
vn 0.994000 -0.109382 0.000000
vn 0.994000 -0.109382 0.000000
vn 0.000000 0.000000 1.000000
vn 0.000000 0.000000 1.000000
vn -0.937609 0.347691 0.000000
vn -0.937609 0.347691 0.000000
vn -0.000000 0.000000 -1.000000
vn -0.000000 0.000000 -1.000000
vn 0.953655 -0.300902 0.000000
vn 0.953655 -0.300902 0.000000
vn 0.000000 0.000000 1.000000
vn 0.000000 0.000000 1.000000
vn -0.717549 0.696508 0.000000
vn -0.717549 0.696508 0.000000
vn 0.000000 0.000000 -1.000000
vn 0.000000 0.000000 -1.000000
vn 0.841555 -0.540171 0.000000
vn 0.841555 -0.540171 0.000000
vn 0.000000 0.000000 1.000000
vn 0.000000 0.000000 1.000000
vn -0.518767 0.854915 0.000000
vn -0.518767 0.854915 0.000000
vn 0.000000 0.000000 -1.000000
vn 0.000000 0.000000 -1.000000
vn 0.659687 -0.751540 0.000000
vn 0.659687 -0.751540 0.000000
vn -0.000000 0.000000 1.000000
vn -0.000000 0.000000 1.000000
vn -0.383175 0.923676 0.000000
vn -0.383175 0.923676 0.000000
vn 0.000000 0.000000 -1.000000
vn 0.000000 0.000000 -1.000000
vn 0.458163 -0.888868 0.000000
vn 0.458163 -0.888868 0.000000
vn -0.000000 0.000000 1.000000
vn -0.000000 0.000000 1.000000
vn -0.249008 0.968501 0.000000
vn -0.249008 0.968501 0.000000
vn -0.000000 0.000000 -1.000000
vn -0.000000 0.000000 -1.000000
vn 0.280448 -0.959869 0.000000
vn 0.280448 -0.959869 0.000000
vn 0.000000 0.000000 1.000000
vn 0.000000 0.000000 1.000000
vn -0.121129 0.992637 0.000000
vn -0.121129 0.992637 0.000000
vn -0.000000 0.000000 -1.000000
vn -0.000000 0.000000 -1.000000
vn 0.132173 -0.991227 0.000000
vn 0.132173 -0.991227 0.000000
vn 0.000000 0.000000 1.000000
vn -0.000000 0.000000 1.000000
vn 0.000000 1.000000 0.000000
vn 0.000000 1.000000 0.000000
vn 0.000000 0.000000 -1.000000
vn -0.000000 0.000000 -1.000000
vn 0.000000 -1.000000 0.000000
vn 0.000000 -1.000000 0.000000
vn 0.000000 0.000000 1.000000
vn 0.000000 0.000000 1.000000
vn 0.121129 0.992637 0.000000
vn 0.121129 0.992637 0.000000
vn 0.000000 0.000000 -1.000000
vn 0.000000 0.000000 -1.000000
vn -0.132173 -0.991227 0.000000
vn -0.132173 -0.991227 0.000000
vn 0.000000 0.000000 1.000000
vn 0.000000 0.000000 1.000000
vn 0.249008 0.968501 0.000000
vn 0.249008 0.968501 0.000000
vn 0.000000 0.000000 -1.000000
vn 0.000000 0.000000 -1.000000
vn -0.280448 -0.959869 0.000000
vn -0.280448 -0.959869 0.000000
vn -0.000000 0.000000 1.000000
vn -0.000000 0.000000 1.000000
vn 0.383175 0.923676 0.000000
vn 0.383175 0.923676 0.000000
vn 0.000000 0.000000 -1.000000
vn 0.000000 0.000000 -1.000000
vn -0.458163 -0.888868 0.000000
vn -0.458163 -0.888868 0.000000
vn -0.000000 0.000000 1.000000
vn -0.000000 0.000000 1.000000
vn -0.000000 0.000000 1.000000
vn -0.000000 0.000000 1.000000
vn 0.518768 0.854915 0.000000
vn 0.518768 0.854915 0.000000
vn -0.000000 0.000000 -1.000000
vn -0.000000 0.000000 -1.000000
vn -0.000000 0.000000 -1.000000
vn -0.000000 0.000000 -1.000000
vn -0.659688 -0.751540 0.000000
vn -0.659688 -0.751540 0.000000
vn -0.000000 0.000000 1.000000
vn -0.000000 0.000000 1.000000
vn 0.717550 0.696507 0.000000
vn 0.717550 0.696507 0.000000
vn -0.000000 0.000000 -1.000000
vn -0.000000 0.000000 -1.000000
vn -0.841555 -0.540171 0.000000
vn -0.841555 -0.540171 0.000000
vn -0.000000 0.000000 1.000000
vn -0.000000 0.000000 1.000000
vn 0.937609 0.347691 0.000000
vn 0.937609 0.347691 0.000000
vn -0.000000 0.000000 -1.000000
vn -0.000000 0.000000 -1.000000
vn -0.953655 -0.300902 0.000000
vn -0.953655 -0.300902 0.000000
vn 0.000000 0.000000 1.000000
vn 0.000000 0.000000 1.000000
vn 0.000000 0.000000 1.000000
vn 0.000000 0.000000 1.000000
vn 0.000000 1.000000 0.000000
vn 0.000000 1.000000 0.000000
vn 0.000000 1.000000 0.000000
vn 0.000000 1.000000 0.000000
vn 0.000000 0.000000 -1.000000
vn 0.000000 0.000000 -1.000000
vn 0.000000 0.000000 -1.000000
vn 0.000000 0.000000 -1.000000
vn 0.000000 -1.000000 0.000000
vn 0.000000 -1.000000 0.000000
vn 0.000000 -1.000000 0.000000
vn 0.000000 -1.000000 0.000000
vn 1.000000 0.000000 0.000000
vn 1.000000 0.000000 0.000000
vn 1.000000 0.000000 0.000000
vn 1.000000 0.000000 0.000000
vn -1.000000 0.000000 0.000000
vn -1.000000 0.000000 0.000000
vn -1.000000 0.000000 0.000000
vn -1.000000 0.000000 0.000000
vn 0.000000 0.000000 1.000000
vn 0.000000 0.000000 1.000000
vn 0.000000 0.000000 1.000000
vn 0.000000 0.000000 1.000000
vn 0.000000 1.000000 0.000000
vn 0.000000 1.000000 0.000000
vn 0.000000 1.000000 0.000000
vn 0.000000 1.000000 0.000000
vn 0.000000 0.000000 -1.000000
vn 0.000000 0.000000 -1.000000
vn 0.000000 0.000000 -1.000000
vn 0.000000 0.000000 -1.000000
vn 0.000000 -1.000000 0.000000
vn 0.000000 -1.000000 0.000000
vn 0.000000 -1.000000 0.000000
vn 0.000000 -1.000000 0.000000
vn 1.000000 0.000000 0.000000
vn 1.000000 0.000000 0.000000
vn 1.000000 0.000000 0.000000
vn 1.000000 0.000000 0.000000
vn -1.000000 0.000000 0.000000
vn -1.000000 0.000000 0.000000
vn -1.000000 0.000000 0.000000
vn -1.000000 0.000000 0.000000
s off
g pCube7_curve1
usemtl initialShadingGroup
f 1/1/1 2/2/2 4/3/3 3/4/4
f 3/4/5 4/3/6 6/5/7 5/6/8
f 5/6/9 6/5/10 8/7/11 7/8/12
f 2/2/13 8/9/14 6/10/15 4/3/16
f 7/11/17 1/1/18 3/4/19 5/12/20
f 9/13/21 10/14/22 12/15/23 11/16/24
f 11/16/25 12/15/26 14/17/27 13/18/28
f 13/18/29 14/17/30 16/19/31 15/20/32
f 10/14/33 16/21/34 14/22/35 12/15/36
f 15/23/37 9/13/38 11/16/39 13/24/40
s 1
f 73/25/41 74/26/42 10/14/43 9/13/44
s 2
f 74/26/45 75/27/46 16/21/47 10/14/48
s 3
f 75/28/49 76/29/50 15/20/51 16/19/52
s 4
f 76/30/53 73/25/54 9/13/55 15/23/56
s 5
f 2/2/57 1/1/58 18/31/59 17/32/60
s 2
f 1/1/61 7/11/62 19/33/63 18/31/64
s 7
f 7/8/65 8/7/66 20/34/67 19/35/68
s 4
f 8/9/69 2/2/70 17/32/71 20/36/72
s 5
f 17/32/60 18/31/59 22/37/73 21/38/74
s 2
f 18/31/64 19/33/63 23/39/75 22/37/76
s 7
f 19/35/68 20/34/67 24/40/77 23/41/78
s 4
f 20/36/72 17/32/71 21/38/79 24/42/80
s 5
f 21/38/74 22/37/73 26/43/81 25/44/82
s 2
f 22/37/76 23/39/75 27/45/83 26/43/84
s 7
f 23/41/78 24/40/77 28/46/85 27/47/86
s 4
f 24/42/80 21/38/79 25/44/87 28/48/88
s 5
f 25/44/82 26/43/81 30/49/89 29/50/90
s 2
f 26/43/84 27/45/83 31/51/91 30/49/92
s 7
f 27/47/86 28/46/85 32/52/93 31/53/94
s 4
f 28/48/88 25/44/87 29/50/95 32/54/96
s 5
f 29/50/90 30/49/89 34/55/97 33/56/98
s 2
f 30/49/92 31/51/91 35/57/99 34/55/100
s 7
f 31/53/94 32/52/93 36/58/101 35/59/102
s 4
f 32/54/96 29/50/95 33/56/103 36/60/104
s 5
f 33/56/98 34/55/97 38/61/105 37/62/106
s 2
f 34/55/100 35/57/99 39/63/107 38/61/108
s 7
f 35/59/102 36/58/101 40/64/109 39/65/110
s 4
f 36/60/104 33/56/103 37/62/111 40/66/112
s 5
f 37/62/106 38/61/105 42/67/113 41/68/114
s 2
f 38/61/108 39/63/107 43/69/115 42/67/116
s 7
f 39/65/110 40/64/109 44/70/117 43/71/118
s 4
f 40/66/112 37/62/111 41/68/119 44/72/120
s 5
f 41/68/114 42/67/113 46/73/121 45/74/122
s 2
f 42/67/116 43/69/115 47/75/123 46/73/124
s 7
f 43/71/118 44/70/117 48/76/125 47/77/126
s 4
f 44/72/120 41/68/119 45/74/127 48/78/128
s 5
f 45/74/122 46/73/121 50/79/129 49/80/130
s 2
f 46/73/124 47/75/123 51/81/131 50/79/132
s 7
f 47/77/126 48/76/125 52/82/133 51/83/134
s 4
f 48/78/128 45/74/127 49/80/135 52/84/136
s 5
f 49/80/130 50/79/129 54/85/137 53/86/138
s 2
f 50/79/132 51/81/131 55/87/139 54/85/140
s 7
f 51/83/134 52/82/133 56/88/141 55/89/142
s 4
f 52/84/136 49/80/135 53/86/143 56/90/144
s 5
f 53/86/138 54/85/137 58/91/145 57/92/146
s 2
f 54/85/140 55/87/139 59/93/147 58/91/148
s 7
f 55/89/142 56/88/141 60/94/149 59/95/150
s 4
f 56/90/144 53/86/143 57/92/151 60/96/152
s 1
f 57/92/153 58/91/154 62/97/155 61/98/156
s 2
f 58/91/148 59/93/147 63/99/157 62/97/158
s 3
f 59/95/159 60/94/160 64/100/161 63/101/162
s 4
f 60/96/152 57/92/151 61/98/163 64/102/164
s 1
f 61/98/156 62/97/155 66/103/165 65/104/166
s 2
f 62/97/158 63/99/157 67/105/167 66/103/168
s 3
f 63/101/162 64/100/161 68/106/169 67/107/170
s 4
f 64/102/164 61/98/163 65/104/171 68/108/172
s 1
f 65/104/166 66/103/165 70/109/173 69/110/174
s 2
f 66/103/168 67/105/167 71/111/175 70/109/176
s 3
f 67/107/170 68/106/169 72/112/177 71/113/178
s 4
f 68/108/172 65/104/171 69/110/179 72/114/180
s 1
f 69/110/174 70/109/173 74/26/42 73/25/41
s 2
f 70/109/176 71/111/175 75/27/46 74/26/45
s 3
f 71/113/178 72/112/177 76/29/50 75/28/49
s 4
f 72/114/180 69/110/179 73/25/54 76/30/53
s off
f 77/115/181 78/116/182 80/117/183 79/118/184
f 79/118/185 80/117/186 82/119/187 81/120/188
f 81/120/189 82/119/190 84/121/191 83/122/192
f 83/122/193 84/121/194 78/123/195 77/124/196
f 78/116/197 84/125/198 82/126/199 80/117/200
f 83/127/201 77/115/202 79/118/203 81/128/204
f 85/129/205 86/130/206 88/131/207 87/132/208
f 87/132/209 88/131/210 90/133/211 89/134/212
f 89/134/213 90/133/214 92/135/215 91/136/216
f 91/136/217 92/135/218 86/137/219 85/138/220
f 86/130/221 92/139/222 90/140/223 88/131/224
f 91/141/225 85/129/226 87/132/227 89/142/228
