# This file uses feet as units for non-parametric coordinates.

mtllib SteelBeam1.mtl
g default
v -12.929413 11.226103 128.645569
v 13.653076 11.226103 128.645569
v -12.929413 11.226103 -128.611420
v 13.653076 11.226103 -128.611420
v -12.929413 -15.356344 128.645569
v 13.653076 -15.356344 128.645569
v -12.929413 -15.356344 -128.611420
v 13.653076 -15.356344 -128.611420
v -9.215637 -15.356344 -128.611420
v -9.215637 11.226103 -128.611420
v -9.215637 11.226103 128.645569
v -9.215637 -15.356344 128.645569
v 9.774139 -15.356344 -128.611420
v 9.774139 11.226103 -128.611420
v 9.774139 11.226103 128.645569
v 9.774139 -15.356344 128.645569
v 9.774139 1.709584 -128.611420
v 13.653076 1.926208 -128.611420
v -9.215637 1.709584 128.645569
v -12.929413 1.926208 128.645569
v -12.929413 1.926208 -128.611420
v 13.653076 1.926208 128.645569
v -9.215637 1.709584 -128.611420
v 9.774139 1.709584 128.645569
v 9.774139 -6.073949 -128.611420
v 13.653076 -6.261309 -128.611420
v -9.215637 -6.073949 128.645569
v -12.929413 -6.261309 128.645569
v -12.929413 -6.261309 -128.611420
v 13.653076 -6.261309 128.645569
v -9.215637 -6.073949 -128.611420
v 9.774139 -6.073949 128.645569
vt 0.111264 0.289848
vt 0.096487 0.289848
vt 0.096488 0.254487
vt 0.111264 0.255201
vt 0.024149 0.289848
vt 0.010002 0.289848
vt 0.010001 0.255201
vt 0.024148 0.254487
vt 0.111265 0.224012
vt 0.096488 0.224836
vt 0.096489 0.188584
vt 0.111266 0.188584
vt 0.024148 0.224837
vt 0.010000 0.224011
vt 0.010000 0.188584
vt 0.024147 0.188584
vt 0.010000 0.345252
vt 0.010000 0.331104
vt 0.989999 0.331104
vt 0.989999 0.345252
vt 0.989999 0.303989
vt 0.989999 0.318136
vt 0.010000 0.318136
vt 0.010000 0.303989
vt 0.226924 0.289848
vt 0.212777 0.289848
vt 0.212777 0.254487
vt 0.226925 0.255201
vt 0.140438 0.289848
vt 0.125661 0.289848
vt 0.125661 0.255201
vt 0.140437 0.254487
vt 0.226925 0.224011
vt 0.212777 0.224836
vt 0.212777 0.188584
vt 0.226925 0.188584
vt 0.140437 0.224836
vt 0.125661 0.224011
vt 0.125660 0.188584
vt 0.140437 0.188584
vt 0.990000 0.990000
vt 0.010000 0.990000
vt 0.010000 0.955353
vt 0.990000 0.955353
vt 0.990000 0.924164
vt 0.010000 0.924164
vt 0.010000 0.888736
vt 0.990000 0.888736
vt 0.010000 0.774248
vt 0.989999 0.774248
vt 0.989999 0.808895
vt 0.010000 0.808895
vt 0.010000 0.840085
vt 0.989999 0.840085
vt 0.989999 0.875512
vt 0.010000 0.875512
vt 0.010000 0.399483
vt 0.010000 0.384706
vt 0.990000 0.384706
vt 0.990000 0.399483
vt 0.989999 0.357591
vt 0.989999 0.372367
vt 0.010000 0.372367
vt 0.010000 0.357591
vt 0.989999 0.688684
vt 0.989999 0.761024
vt 0.010000 0.761024
vt 0.010000 0.688684
vt 0.010000 0.507847
vt 0.990000 0.507847
vt 0.990000 0.544099
vt 0.010000 0.544099
vt 0.990000 0.592305
vt 0.010000 0.592305
vt 0.010000 0.556052
vt 0.990000 0.556052
vt 0.010000 0.676664
vt 0.010000 0.604324
vt 0.990000 0.604324
vt 0.989999 0.676664
vt 0.990000 0.495894
vt 0.010000 0.495894
vt 0.010000 0.460533
vt 0.990000 0.460533
vt 0.010000 0.412328
vt 0.990000 0.412328
vt 0.990000 0.447688
vt 0.010000 0.447688
vn 0.000000 0.000000 -1.000000
vn 0.000000 0.000000 -1.000000
vn 0.000000 0.000000 -1.000000
vn 0.000000 0.000000 -1.000000
vn 0.000000 0.000000 -1.000000
vn 0.000000 0.000000 -1.000000
vn 0.000000 0.000000 -1.000000
vn 0.000000 0.000000 -1.000000
vn 0.000000 0.000000 -1.000000
vn 0.000000 0.000000 -1.000000
vn 0.000000 0.000000 -1.000000
vn 0.000000 0.000000 -1.000000
vn 0.000000 0.000000 -1.000000
vn 0.000000 0.000000 -1.000000
vn 0.000000 0.000000 -1.000000
vn 0.000000 0.000000 -1.000000
vn 0.000000 0.000000 -1.000000
vn 0.000000 0.000000 -1.000000
vn 0.000000 0.000000 -1.000000
vn 0.000000 0.000000 -1.000000
vn 0.000000 0.000000 -1.000000
vn 0.000000 0.000000 -1.000000
vn 0.000000 0.000000 -1.000000
vn 0.000000 0.000000 -1.000000
vn 0.000000 0.000000 -1.000000
vn 0.000000 0.000000 -1.000000
vn 0.000000 0.000000 -1.000000
vn 0.000000 0.000000 -1.000000
vn 0.000000 1.000000 0.000000
vn 0.000000 1.000000 0.000000
vn 0.000000 1.000000 0.000000
vn 0.000000 1.000000 0.000000
vn 0.000000 -1.000000 0.000000
vn 0.000000 -1.000000 0.000000
vn 0.000000 -1.000000 0.000000
vn 0.000000 -1.000000 0.000000
vn 0.000000 0.000000 1.000000
vn 0.000000 0.000000 1.000000
vn 0.000000 0.000000 1.000000
vn 0.000000 0.000000 1.000000
vn 0.000000 0.000000 1.000000
vn 0.000000 0.000000 1.000000
vn 0.000000 0.000000 1.000000
vn 0.000000 0.000000 1.000000
vn 0.000000 0.000000 1.000000
vn 0.000000 0.000000 1.000000
vn 0.000000 0.000000 1.000000
vn 0.000000 0.000000 1.000000
vn 0.000000 0.000000 1.000000
vn 0.000000 0.000000 1.000000
vn 0.000000 0.000000 1.000000
vn 0.000000 0.000000 1.000000
vn 0.000000 0.000000 1.000000
vn 0.000000 0.000000 1.000000
vn 0.000000 0.000000 1.000000
vn 0.000000 0.000000 1.000000
vn 0.000000 0.000000 1.000000
vn 0.000000 0.000000 1.000000
vn 0.000000 0.000000 1.000000
vn 0.000000 0.000000 1.000000
vn 0.000000 0.000000 1.000000
vn 0.000000 0.000000 1.000000
vn 0.000000 0.000000 1.000000
vn 0.000000 0.000000 1.000000
vn -1.000000 0.000000 0.000000
vn -1.000000 0.000000 0.000000
vn -1.000000 0.000000 0.000000
vn -1.000000 0.000000 0.000000
vn -1.000000 0.000000 0.000000
vn -1.000000 0.000000 0.000000
vn -1.000000 0.000000 0.000000
vn -1.000000 0.000000 0.000000
vn -1.000000 0.000000 0.000000
vn -1.000000 0.000000 0.000000
vn -1.000000 0.000000 0.000000
vn -1.000000 0.000000 0.000000
vn 1.000000 0.000000 0.000000
vn 1.000000 0.000000 0.000000
vn 1.000000 0.000000 0.000000
vn 1.000000 0.000000 0.000000
vn 1.000000 0.000000 0.000000
vn 1.000000 0.000000 0.000000
vn 1.000000 0.000000 0.000000
vn 1.000000 0.000000 0.000000
vn 1.000000 0.000000 0.000000
vn 1.000000 0.000000 0.000000
vn 1.000000 0.000000 0.000000
vn 1.000000 0.000000 0.000000
vn 0.000000 1.000000 0.000000
vn 0.000000 1.000000 0.000000
vn 0.000000 1.000000 0.000000
vn 0.000000 1.000000 0.000000
vn 0.000000 -1.000000 0.000000
vn 0.000000 -1.000000 0.000000
vn 0.000000 -1.000000 0.000000
vn 0.000000 -1.000000 0.000000
vn 0.000000 1.000000 0.000000
vn 0.000000 1.000000 0.000000
vn 0.000000 1.000000 0.000000
vn 0.000000 1.000000 0.000000
vn 1.000000 0.000000 0.000000
vn 1.000000 0.000000 0.000000
vn 1.000000 0.000000 0.000000
vn 1.000000 0.000000 0.000000
vn -1.000000 0.000000 0.000000
vn -1.000000 0.000000 0.000000
vn -1.000000 0.000000 0.000000
vn -1.000000 0.000000 0.000000
vn 0.000000 -1.000000 0.000000
vn 0.000000 -1.000000 0.000000
vn 0.000000 -1.000000 0.000000
vn 0.000000 -1.000000 0.000000
vn 1.000000 0.000000 0.000000
vn 1.000000 0.000000 0.000000
vn 1.000000 0.000000 0.000000
vn 1.000000 0.000000 0.000000
vn -1.000000 0.000000 0.000000
vn -1.000000 0.000000 0.000000
vn -1.000000 0.000000 0.000000
vn -1.000000 0.000000 0.000000
s off
g SteelBeam8:ZBrushPolyMesh3D
usemtl initialShadingGroup
f 8/1/1 13/2/2 25/3/3 26/4/4
f 9/5/5 7/6/6 29/7/7 31/8/8
f 18/9/9 17/10/10 14/11/11 4/12/12
f 23/13/13 21/14/14 3/15/15 10/16/16
f 26/4/17 25/3/18 17/10/19 18/9/20
f 31/8/21 29/7/22 21/14/23 23/13/24
f 25/3/25 31/8/26 23/13/27 17/10/28
f 1/17/29 11/18/30 10/19/31 3/20/32
f 7/21/33 9/22/34 12/23/35 5/24/36
f 5/25/37 12/26/38 27/27/39 28/28/40
f 16/29/41 6/30/42 30/31/43 32/32/44
f 20/33/45 19/34/46 11/35/47 1/36/48
f 24/37/49 22/38/50 2/39/51 15/40/52
f 28/28/53 27/27/54 19/34/55 20/33/56
f 27/27/57 32/32/58 24/37/59 19/34/60
f 32/32/61 30/31/62 22/38/63 24/37/64
f 7/41/65 5/42/66 28/43/67 29/44/68
f 21/45/69 20/46/70 1/47/71 3/48/72
f 29/44/73 28/43/74 20/46/75 21/45/76
f 6/49/77 8/50/78 26/51/79 30/52/80
f 22/53/81 18/54/82 4/55/83 2/56/84
f 30/52/85 26/51/86 18/54/87 22/53/88
f 15/57/89 2/58/90 4/59/91 14/60/92
f 13/61/93 8/62/94 6/63/95 16/64/96
f 19/65/97 24/66/98 17/67/99 23/68/100
f 10/69/101 11/70/102 19/71/103 23/72/104
f 15/73/105 14/74/106 17/75/107 24/76/108
f 31/77/109 25/78/110 32/79/111 27/80/112
f 12/81/113 9/82/114 31/83/115 27/84/116
f 13/85/117 16/86/118 32/87/119 25/88/120
