# This file uses centimeters as units for non-parametric coordinates.

mtllib pipingOBJ.mtl
g default
v 0.707107 3.969403 0.707107
v 0.000000 3.969403 1.000000
v -0.707107 3.969403 0.707107
v -1.000000 3.969403 0.000000
v -0.707107 3.969403 -0.707107
v 0.000000 3.969403 -1.000000
v 0.707107 3.969403 -0.707107
v 1.000000 3.969403 0.000000
v 1.071822 3.969403 1.071822
v 0.000000 3.969403 1.515785
v -1.071822 3.969403 1.071822
v -1.515785 3.969403 0.000000
v -1.071822 3.969403 -1.071822
v 0.000000 3.969403 -1.515785
v 1.071822 3.969403 -1.071822
v 1.515785 3.969403 0.000000
v 1.071822 3.648981 1.071822
v 0.000000 3.648981 1.515785
v -1.071822 3.648981 1.071822
v -1.515785 3.648981 0.000000
v -1.071822 3.648981 -1.071822
v -0.000000 3.648981 -1.515785
v 1.071822 3.648981 -1.071822
v 1.515785 3.648981 0.000000
v 0.754758 3.648981 0.754758
v 0.000000 3.648981 1.067389
v -0.754758 3.648981 0.754758
v -1.067389 3.648981 0.000000
v -0.754758 3.648981 -0.754758
v 0.000000 3.648981 -1.067388
v 0.754758 3.648981 -0.754758
v 1.067389 3.648981 0.000000
v 0.754758 2.719155 0.754759
v 0.000001 2.719155 1.067390
v -0.754757 2.719155 0.754759
v -1.067389 2.719155 -0.000001
v -0.754758 2.719155 -0.754760
v -0.000001 2.719155 -1.067389
v 0.754757 2.719155 -0.754759
v 1.067389 2.719155 0.000001
v -0.188209 1.134375 0.754759
v -0.752370 1.653502 1.067390
v -1.316532 2.172629 0.754759
v -1.550216 2.387657 -0.000001
v -1.316532 2.172629 -0.754760
v -0.752373 1.653504 -1.067389
v -0.188211 1.134377 -0.754759
v 0.045473 0.919344 0.000001
v -1.822850 0.486819 0.754760
v -1.856467 1.213562 1.067390
v -1.890085 1.940310 0.754760
v -1.922855 2.222025 -0.000002
v -1.890085 1.940308 -0.754760
v -1.856468 1.213564 -1.067389
v -1.822850 0.486820 -0.754760
v -1.790082 0.205103 0.000001
v 0.707107 37.819863 -0.707107
v 0.000000 37.819863 -1.000000
v -0.707107 37.819863 -0.707107
v -1.000000 37.819863 0.000000
v -0.707107 37.819863 0.707107
v 0.000000 37.819863 1.000000
v 0.707107 37.819863 0.707107
v 1.000000 37.819863 0.000000
v 1.071822 37.819863 -1.071822
v 0.000000 37.819863 -1.515785
v -1.071822 37.819863 -1.071822
v -1.515785 37.819863 0.000000
v -1.071822 37.819863 1.071822
v 0.000000 37.819863 1.515785
v 1.071822 37.819863 1.071822
v 1.515785 37.819863 -0.000000
v 1.071822 38.140286 -1.071822
v 0.000000 38.140286 -1.515785
v -1.071822 38.140286 -1.071822
v -1.515785 38.140286 -0.000000
v -1.071822 38.140286 1.071822
v -0.000000 38.140286 1.515785
v 1.071822 38.140286 1.071822
v 1.515785 38.140286 -0.000000
v 0.754758 38.140286 -0.754758
v 0.000000 38.140286 -1.067389
v -0.754758 38.140290 -0.754758
v -1.067389 38.140290 -0.000000
v -0.754758 38.140286 0.754758
v 0.000000 38.140286 1.067388
v 0.754758 38.140290 0.754758
v 1.067389 38.140290 -0.000000
v 0.754758 39.070114 -0.754759
v 0.000001 39.070114 -1.067390
v -0.754757 39.070114 -0.754759
v -1.067389 39.070114 0.000001
v -0.754758 39.070114 0.754760
v -0.000001 39.070114 1.067389
v 0.754757 39.070114 0.754759
v 1.067389 39.070114 -0.000001
v -0.188209 40.654892 -0.754759
v -0.752370 40.135765 -1.067390
v -1.316532 39.616638 -0.754759
v -1.550216 39.401612 0.000001
v -1.316532 39.616638 0.754760
v -0.752373 40.135765 1.067389
v -0.188211 40.654892 0.754759
v 0.045473 40.869919 -0.000001
v -1.822850 41.302452 -0.754760
v -1.856467 40.575707 -1.067390
v -1.890085 39.848957 -0.754760
v -1.922855 39.567238 0.000002
v -1.890085 39.848961 0.754760
v -1.856468 40.575699 1.067389
v -1.822850 41.302445 0.754760
v -1.790082 41.584168 -0.000001
vt 0.371442 0.128446
vt 0.257727 0.127639
vt 0.261266 0.117513
vt 0.375714 0.119445
vt 0.144826 0.126688
vt 0.143441 0.114947
vt 0.032691 0.126371
vt 0.980501 0.113956
vt 0.827042 0.126194
vt 0.837028 0.115081
vt 0.713949 0.127310
vt 0.720129 0.117227
vt 0.600113 0.128275
vt 0.606160 0.119241
vt 0.485756 0.128701
vt 0.490992 0.120107
vt 0.262090 0.110512
vt 0.375917 0.112988
vt 0.144711 0.107440
vt 0.981431 0.105327
vt 0.835161 0.107716
vt 0.718257 0.110312
vt 0.605004 0.112827
vt 0.490539 0.113876
vt 0.268579 0.101709
vt 0.380744 0.104905
vt 0.154593 0.097909
vt 0.948490 0.094719
vt 0.831646 0.097881
vt 0.719102 0.101470
vt 0.607427 0.104726
vt 0.494100 0.106058
vt 0.288641 0.081556
vt 0.388505 0.087277
vt 0.185029 0.074460
vt 0.923957 0.071305
vt 0.807463 0.074706
vt 0.700668 0.081838
vt 0.598436 0.087457
vt 0.493085 0.089401
vt 0.284261 0.053040
vt 0.390026 0.052415
vt 0.172958 0.054280
vt 0.939413 0.057215
vt 0.821273 0.054786
vt 0.709141 0.053380
vt 0.602911 0.052597
vt 0.496373 0.052609
vt 0.254190 0.027752
vt 0.366874 0.017076
vt 0.152903 0.040039
vt 0.954149 0.048108
vt 0.843826 0.040721
vt 0.743378 0.028254
vt 0.631771 0.017358
vt 0.499541 0.012807
vt 0.730113 0.878404
vt 0.616399 0.877596
vt 0.843013 0.879356
vt 0.955148 0.879674
vt 0.160799 0.879847
vt 0.273892 0.878732
vt 0.387728 0.877767
vt 0.502084 0.877341
vt 0.726570 0.888531
vt 0.612125 0.886597
vt 0.844395 0.891097
vt 0.007336 0.892084
vt 0.150809 0.890960
vt 0.267709 0.888814
vt 0.381680 0.886801
vt 0.496847 0.885935
vt 0.725743 0.895532
vt 0.611920 0.893055
vt 0.843124 0.898605
vt 0.006402 0.900712
vt 0.152673 0.898324
vt 0.269579 0.895729
vt 0.382833 0.893214
vt 0.497299 0.892166
vt 0.719251 0.904336
vt 0.607088 0.901138
vt 0.833238 0.908136
vt 0.039338 0.911320
vt 0.156183 0.908159
vt 0.268730 0.904571
vt 0.380406 0.901315
vt 0.493734 0.899984
vt 0.699180 0.924489
vt 0.599319 0.918766
vt 0.802789 0.931586
vt 0.063858 0.934732
vt 0.180354 0.931333
vt 0.287153 0.924202
vt 0.389389 0.918585
vt 0.494740 0.916641
vt 0.703542 0.953004
vt 0.597777 0.953628
vt 0.814847 0.951766
vt 0.048392 0.948822
vt 0.166530 0.951253
vt 0.278662 0.952660
vt 0.384892 0.953444
vt 0.491430 0.953433
vt 0.733596 0.978294
vt 0.620903 0.988968
vt 0.834892 0.966008
vt 0.033649 0.957929
vt 0.143968 0.965317
vt 0.244406 0.977785
vt 0.356006 0.988682
vt 0.488233 0.993235
vt 0.939203 0.126203
vt 0.048637 0.879838
vt 0.932770 0.949847
vt 0.945658 0.959080
vt 0.919344 0.935510
vt 0.947344 0.912119
vt 0.984179 0.902401
vt 0.989786 0.893670
vt 0.055036 0.056201
vt 0.042142 0.046968
vt 0.068472 0.070537
vt 0.040486 0.093927
vt 0.003656 0.103645
vt -0.001949 0.112375
vn 0.000000 1.000000 0.000001
vn 0.000000 1.000000 0.000001
vn 0.000000 1.000000 0.000001
vn 0.000000 1.000000 0.000001
vn 0.000000 1.000000 0.000000
vn 0.000000 1.000000 0.000000
vn 0.000000 1.000000 0.000000
vn 0.000000 1.000000 0.000000
vn 0.000000 1.000000 -0.000001
vn 0.000000 1.000000 -0.000001
vn 0.000000 1.000000 -0.000001
vn 0.000000 1.000000 -0.000001
vn 0.000000 1.000000 0.000000
vn 0.000000 1.000000 0.000000
vn 0.000000 1.000000 0.000000
vn 0.000000 1.000000 0.000000
vn 0.382684 0.000000 0.923879
vn 0.382684 0.000000 0.923879
vn 0.382684 0.000000 0.923879
vn 0.382684 0.000000 0.923879
vn -0.382684 0.000000 0.923879
vn -0.382684 0.000000 0.923879
vn -0.382684 0.000000 0.923879
vn -0.382684 0.000000 0.923879
vn -0.923880 -0.000000 0.382684
vn -0.923880 -0.000000 0.382684
vn -0.923880 -0.000000 0.382684
vn -0.923880 -0.000000 0.382684
vn -0.923880 -0.000000 -0.382684
vn -0.923880 -0.000000 -0.382684
vn -0.923880 -0.000000 -0.382684
vn -0.923880 -0.000000 -0.382684
vn -0.382685 0.000000 -0.923879
vn -0.382685 0.000000 -0.923879
vn -0.382685 0.000000 -0.923879
vn -0.382685 0.000000 -0.923879
vn 0.382685 -0.000000 -0.923879
vn 0.382685 -0.000000 -0.923879
vn 0.382685 -0.000000 -0.923879
vn 0.382685 -0.000000 -0.923879
vn 0.923880 -0.000000 -0.382684
vn 0.923880 -0.000000 -0.382684
vn 0.923880 -0.000000 -0.382684
vn 0.923880 -0.000000 -0.382684
vn 0.923879 0.000001 0.382684
vn 0.923880 0.000001 0.382684
vn 0.923880 0.000001 0.382684
vn 0.923880 0.000001 0.382684
vn 0.000000 -1.000000 0.000001
vn 0.000000 -1.000000 0.000002
vn 0.000000 -1.000000 0.000002
vn 0.000000 -1.000000 0.000001
vn 0.000000 -1.000000 0.000001
vn 0.000000 -1.000000 0.000001
vn 0.000000 -1.000000 0.000000
vn 0.000000 -1.000000 0.000000
vn 0.000000 -1.000000 -0.000002
vn 0.000000 -1.000000 -0.000002
vn 0.000000 -1.000000 -0.000004
vn 0.000000 -1.000000 -0.000004
vn 0.000000 -1.000000 -0.000001
vn 0.000000 -1.000000 -0.000001
vn 0.000000 -1.000000 0.000001
vn 0.000000 -1.000000 0.000001
vn 0.382684 0.000001 0.923880
vn 0.382684 0.000001 0.923880
vn 0.359240 -0.151497 0.920867
vn 0.365602 -0.115674 0.923555
vn -0.382683 0.000001 0.923880
vn -0.382683 0.000001 0.923880
vn -0.351742 0.160208 0.922286
vn -0.363374 0.105935 0.925601
vn -0.923880 -0.000000 0.382683
vn -0.923880 -0.000000 0.382683
vn -0.923880 -0.000000 0.382683
vn -0.923880 -0.000000 0.382683
vn -0.923880 0.000001 -0.382684
vn -0.923880 0.000001 -0.382684
vn -0.923880 0.000001 -0.382684
vn -0.923880 0.000001 -0.382684
vn -0.382683 0.000002 -0.923880
vn -0.382683 0.000002 -0.923880
vn -0.363374 0.105935 -0.925601
vn -0.351742 0.160209 -0.922286
vn 0.382684 0.000001 -0.923879
vn 0.382684 0.000001 -0.923880
vn 0.365602 -0.115674 -0.923556
vn 0.359239 -0.151498 -0.920867
vn 0.923880 -0.000000 -0.382684
vn 0.923880 -0.000000 -0.382684
vn 0.923880 -0.000000 -0.382684
vn 0.923880 -0.000000 -0.382684
vn 0.923879 0.000000 0.382684
vn 0.923880 0.000000 0.382684
vn 0.923879 0.000000 0.382684
vn 0.923880 0.000000 0.382684
vn 0.246709 -0.308434 0.918697
vn 0.262956 -0.294657 0.918712
vn -0.234895 0.330348 0.914163
vn -0.255860 0.315919 0.913636
vn -0.608828 0.724335 0.323523
vn -0.608828 0.724335 0.323523
vn -0.608828 0.724335 0.323523
vn -0.608828 0.724335 0.323523
vn -0.608828 0.724335 -0.323524
vn -0.608828 0.724335 -0.323524
vn -0.608828 0.724335 -0.323524
vn -0.608828 0.724335 -0.323524
vn -0.255862 0.315921 -0.913635
vn -0.234897 0.330349 -0.914162
vn 0.262956 -0.294657 -0.918712
vn 0.246708 -0.308434 -0.918697
vn 0.807212 -0.468618 -0.358896
vn 0.807212 -0.468618 -0.358896
vn 0.807212 -0.468618 -0.358896
vn 0.807212 -0.468618 -0.358896
vn 0.807213 -0.468618 0.358894
vn 0.807213 -0.468618 0.358894
vn 0.807213 -0.468618 0.358894
vn 0.807213 -0.468618 0.358894
vn 0.152442 -0.383907 0.910701
vn 0.152442 -0.383907 0.910701
vn -0.153617 0.383358 0.910735
vn -0.153617 0.383358 0.910735
vn -0.363388 0.864013 0.348469
vn -0.363388 0.864013 0.348469
vn -0.363388 0.864013 0.348469
vn -0.363388 0.864013 0.348469
vn -0.363389 0.864012 -0.348471
vn -0.363389 0.864012 -0.348471
vn -0.363389 0.864012 -0.348471
vn -0.363389 0.864012 -0.348471
vn -0.153619 0.383361 -0.910734
vn -0.153619 0.383360 -0.910734
vn 0.152442 -0.383906 -0.910702
vn 0.152442 -0.383906 -0.910702
vn 0.342515 -0.872811 -0.347684
vn 0.342515 -0.872811 -0.347684
vn 0.342515 -0.872811 -0.347684
vn 0.342515 -0.872811 -0.347684
vn 0.342515 -0.872813 0.347680
vn 0.342515 -0.872813 0.347680
vn 0.342515 -0.872813 0.347680
vn 0.342515 -0.872813 0.347680
vn 0.382683 0.000000 -0.923880
vn 0.382683 0.000000 -0.923880
vn 0.382683 0.000000 -0.923880
vn 0.382683 0.000000 -0.923880
vn -0.382683 0.000000 -0.923880
vn -0.382683 0.000000 -0.923880
vn -0.382683 0.000000 -0.923880
vn -0.382683 0.000000 -0.923880
vn -0.923880 -0.000000 -0.382683
vn -0.923880 -0.000000 -0.382683
vn -0.923880 -0.000000 -0.382683
vn -0.923880 -0.000000 -0.382683
vn -0.923880 0.000000 0.382683
vn -0.923880 0.000000 0.382683
vn -0.923880 0.000000 0.382683
vn -0.923880 0.000000 0.382683
vn -0.382683 -0.000000 0.923880
vn -0.382683 -0.000000 0.923880
vn -0.382683 -0.000000 0.923880
vn -0.382683 -0.000000 0.923880
vn 0.382683 -0.000000 0.923880
vn 0.382683 -0.000000 0.923880
vn 0.382683 -0.000000 0.923880
vn 0.382683 -0.000000 0.923880
vn 0.923880 -0.000000 0.382684
vn 0.923880 -0.000000 0.382684
vn 0.923880 -0.000000 0.382684
vn 0.923880 -0.000000 0.382684
vn 0.923880 0.000000 -0.382684
vn 0.923880 0.000000 -0.382684
vn 0.923880 0.000000 -0.382684
vn 0.923880 0.000000 -0.382684
vn 0.000000 -1.000000 0.000000
vn 0.000000 -1.000000 0.000000
vn 0.000000 -1.000000 0.000000
vn 0.000000 -1.000000 0.000000
vn 0.000000 -1.000000 0.000000
vn 0.000000 -1.000000 0.000000
vn 0.000000 -1.000000 0.000000
vn 0.000000 -1.000000 0.000000
vn 0.000000 -1.000000 0.000000
vn 0.000000 -1.000000 0.000000
vn 0.000000 -1.000000 0.000000
vn 0.000000 -1.000000 0.000000
vn 0.000000 -1.000000 0.000000
vn 0.000000 -1.000000 0.000000
vn 0.000000 -1.000000 0.000000
vn 0.000000 -1.000000 0.000000
vn 0.382683 -0.000000 -0.923880
vn 0.382683 -0.000000 -0.923880
vn 0.382683 -0.000000 -0.923880
vn 0.382683 -0.000000 -0.923880
vn -0.382683 -0.000000 -0.923880
vn -0.382683 -0.000000 -0.923880
vn -0.382683 -0.000000 -0.923880
vn -0.382683 -0.000000 -0.923880
vn -0.923879 0.000000 -0.382684
vn -0.923879 0.000000 -0.382684
vn -0.923879 0.000000 -0.382684
vn -0.923879 0.000000 -0.382684
vn -0.923879 0.000000 0.382684
vn -0.923879 0.000000 0.382684
vn -0.923879 0.000000 0.382684
vn -0.923879 0.000000 0.382684
vn -0.382683 0.000000 0.923880
vn -0.382683 0.000000 0.923880
vn -0.382683 0.000000 0.923880
vn -0.382683 0.000000 0.923880
vn 0.382683 0.000000 0.923880
vn 0.382683 0.000000 0.923880
vn 0.382683 0.000000 0.923880
vn 0.382683 0.000000 0.923880
vn 0.923879 0.000000 0.382684
vn 0.923879 0.000000 0.382684
vn 0.923879 0.000000 0.382684
vn 0.923879 0.000000 0.382684
vn 0.923879 -0.000001 -0.382684
vn 0.923879 -0.000001 -0.382684
vn 0.923879 -0.000001 -0.382684
vn 0.923879 -0.000001 -0.382684
vn 0.000002 1.000000 -0.000001
vn 0.000000 1.000000 -0.000002
vn 0.000000 1.000000 -0.000002
vn 0.000002 1.000000 -0.000001
vn -0.000004 1.000000 -0.000003
vn -0.000004 1.000000 -0.000003
vn -0.000006 1.000000 0.000000
vn -0.000006 1.000000 0.000000
vn -0.000002 1.000000 0.000001
vn -0.000002 1.000000 0.000001
vn -0.000000 1.000000 0.000003
vn -0.000000 1.000000 0.000003
vn 0.000004 1.000000 0.000004
vn 0.000004 1.000000 0.000004
vn 0.000006 1.000000 -0.000000
vn 0.000006 1.000000 0.000000
vn 0.382684 -0.000001 -0.923880
vn 0.382683 -0.000001 -0.923880
vn 0.359240 0.151497 -0.920867
vn 0.365602 0.115674 -0.923555
vn -0.382683 -0.000001 -0.923880
vn -0.382683 -0.000001 -0.923880
vn -0.351742 -0.160209 -0.922286
vn -0.363374 -0.105935 -0.925601
vn -0.923880 0.000000 -0.382683
vn -0.923880 0.000000 -0.382683
vn -0.923880 0.000000 -0.382683
vn -0.923880 0.000000 -0.382683
vn -0.923880 -0.000001 0.382683
vn -0.923880 -0.000001 0.382683
vn -0.923880 -0.000001 0.382683
vn -0.923880 -0.000001 0.382683
vn -0.382683 -0.000002 0.923880
vn -0.382683 -0.000002 0.923880
vn -0.363373 -0.105935 0.925601
vn -0.351742 -0.160209 0.922286
vn 0.382683 -0.000001 0.923880
vn 0.382683 -0.000001 0.923880
vn 0.365602 0.115674 0.923556
vn 0.359239 0.151498 0.920867
vn 0.923880 0.000000 0.382683
vn 0.923880 0.000000 0.382683
vn 0.923880 0.000000 0.382683
vn 0.923880 0.000000 0.382683
vn 0.923879 -0.000000 -0.382684
vn 0.923879 -0.000000 -0.382684
vn 0.923879 -0.000000 -0.382684
vn 0.923880 -0.000000 -0.382684
vn 0.246709 0.308434 -0.918697
vn 0.262956 0.294657 -0.918712
vn -0.234895 -0.330348 -0.914163
vn -0.255860 -0.315920 -0.913636
vn -0.608827 -0.724336 -0.323523
vn -0.608827 -0.724336 -0.323523
vn -0.608827 -0.724336 -0.323523
vn -0.608827 -0.724336 -0.323523
vn -0.608827 -0.724336 0.323522
vn -0.608827 -0.724336 0.323522
vn -0.608827 -0.724336 0.323522
vn -0.608827 -0.724336 0.323522
vn -0.255861 -0.315921 0.913635
vn -0.234896 -0.330349 0.914163
vn 0.262955 0.294657 0.918712
vn 0.246707 0.308434 0.918697
vn 0.807212 0.468618 0.358896
vn 0.807212 0.468618 0.358895
vn 0.807212 0.468618 0.358895
vn 0.807212 0.468618 0.358895
vn 0.807212 0.468618 -0.358895
vn 0.807212 0.468618 -0.358895
vn 0.807212 0.468618 -0.358895
vn 0.807212 0.468618 -0.358895
vn 0.152443 0.383907 -0.910701
vn 0.152443 0.383907 -0.910701
vn -0.153617 -0.383358 -0.910735
vn -0.153617 -0.383358 -0.910735
vn -0.363384 -0.864015 -0.348468
vn -0.363384 -0.864015 -0.348468
vn -0.363384 -0.864015 -0.348468
vn -0.363384 -0.864015 -0.348468
vn -0.363387 -0.864013 0.348471
vn -0.363387 -0.864013 0.348471
vn -0.363387 -0.864013 0.348471
vn -0.363387 -0.864013 0.348471
vn -0.153618 -0.383360 0.910734
vn -0.153618 -0.383360 0.910734
vn 0.152441 0.383907 0.910702
vn 0.152441 0.383907 0.910702
vn 0.342516 0.872812 0.347681
vn 0.342516 0.872812 0.347681
vn 0.342516 0.872812 0.347681
vn 0.342516 0.872812 0.347681
vn 0.342518 0.872813 -0.347675
vn 0.342518 0.872813 -0.347675
vn 0.342518 0.872813 -0.347675
vn 0.342518 0.872813 -0.347675
s 1
g pCylinder3
usemtl aiStandardSurface1SG
f 1/1/1 2/2/2 10/3/3 9/4/4
f 2/2/2 3/5/5 11/6/6 10/3/3
f 3/5/5 4/7/7 12/126/8 11/6/6
f 4/113/7 5/9/9 13/10/10 12/8/8
f 5/9/9 6/11/11 14/12/12 13/10/10
f 6/11/11 7/13/13 15/14/14 14/12/12
f 7/13/13 8/15/15 16/16/16 15/14/14
f 8/15/15 1/1/1 9/4/4 16/16/16
s off
f 9/4/17 10/3/18 18/17/19 17/18/20
f 10/3/21 11/6/22 19/19/23 18/17/24
f 11/6/25 12/126/26 20/125/27 19/19/28
f 12/8/29 13/10/30 21/21/31 20/20/32
f 13/10/33 14/12/34 22/22/35 21/21/36
f 14/12/37 15/14/38 23/23/39 22/22/40
f 15/14/41 16/16/42 24/24/43 23/23/44
f 16/16/45 9/4/46 17/18/47 24/24/48
s 2
f 17/18/49 18/17/50 26/25/51 25/26/52
f 18/17/50 19/19/53 27/27/54 26/25/51
f 19/19/53 20/125/55 28/124/56 27/27/54
f 20/20/55 21/21/57 29/29/58 28/28/56
f 21/21/57 22/22/59 30/30/60 29/29/58
f 22/22/59 23/23/61 31/31/62 30/30/60
f 23/23/61 24/24/63 32/32/64 31/31/62
f 24/24/63 17/18/49 25/26/52 32/32/64
s 3
f 25/26/65 26/25/66 34/33/67 33/34/68
s 4
f 26/25/69 27/27/70 35/35/71 34/33/72
s off
f 27/27/73 28/124/74 36/123/75 35/35/76
f 28/28/77 29/29/78 37/37/79 36/36/80
s 5
f 29/29/81 30/30/82 38/38/83 37/37/84
s 6
f 30/30/85 31/31/86 39/39/87 38/38/88
s off
f 31/31/89 32/32/90 40/40/91 39/39/92
f 32/32/93 25/26/94 33/34/95 40/40/96
s 3
f 33/34/68 34/33/67 42/41/97 41/42/98
s 4
f 34/33/72 35/35/71 43/43/99 42/41/100
s off
f 35/35/101 36/123/102 44/121/103 43/43/104
f 36/36/105 37/37/106 45/45/107 44/44/108
s 5
f 37/37/84 38/38/83 46/46/109 45/45/110
s 6
f 38/38/88 39/39/87 47/47/111 46/46/112
s off
f 39/39/113 40/40/114 48/48/115 47/47/116
f 40/40/117 33/34/118 41/42/119 48/48/120
s 3
f 41/42/98 42/41/97 50/49/121 49/50/122
s 4
f 42/41/100 43/43/99 51/51/123 50/49/124
s off
f 43/43/125 44/121/126 52/122/127 51/51/128
f 44/44/129 45/45/130 53/53/131 52/52/132
s 5
f 45/45/110 46/46/109 54/54/133 53/53/134
s 6
f 46/46/112 47/47/111 55/55/135 54/54/136
s off
f 47/47/137 48/48/138 56/56/139 55/55/140
f 48/48/141 41/42/142 49/50/143 56/56/144
f 58/57/145 57/58/146 7/13/147 6/11/148
f 59/59/149 58/57/150 6/11/151 5/9/152
f 60/60/153 59/59/154 5/9/155 4/113/156
f 61/61/157 60/114/158 4/7/159 3/5/160
f 62/62/161 61/61/162 3/5/163 2/2/164
f 63/63/165 62/62/166 2/2/167 1/1/168
f 64/64/169 63/63/170 1/1/171 8/15/172
f 57/58/173 64/64/174 8/15/175 7/13/176
s 7
f 57/58/177 58/57/178 66/65/179 65/66/180
f 58/57/178 59/59/181 67/67/182 66/65/179
f 59/59/181 60/60/183 68/120/184 67/67/182
f 60/114/183 61/61/185 69/69/186 68/68/184
f 61/61/185 62/62/187 70/70/188 69/69/186
f 62/62/187 63/63/189 71/71/190 70/70/188
f 63/63/189 64/64/191 72/72/192 71/71/190
f 64/64/191 57/58/177 65/66/180 72/72/192
s off
f 65/66/193 66/65/194 74/73/195 73/74/196
f 66/65/197 67/67/198 75/75/199 74/73/200
f 67/67/201 68/120/202 76/119/203 75/75/204
f 68/68/205 69/69/206 77/77/207 76/76/208
f 69/69/209 70/70/210 78/78/211 77/77/212
f 70/70/213 71/71/214 79/79/215 78/78/216
f 71/71/217 72/72/218 80/80/219 79/79/220
f 72/72/221 65/66/222 73/74/223 80/80/224
s 8
f 73/74/225 74/73/226 82/81/227 81/82/228
f 74/73/226 75/75/229 83/83/230 82/81/227
f 75/75/229 76/119/231 84/118/232 83/83/230
f 76/76/231 77/77/233 85/85/234 84/84/232
f 77/77/233 78/78/235 86/86/236 85/85/234
f 78/78/235 79/79/237 87/87/238 86/86/236
f 79/79/237 80/80/239 88/88/240 87/87/238
f 80/80/239 73/74/225 81/82/228 88/88/240
s 9
f 81/82/241 82/81/242 90/89/243 89/90/244
s 10
f 82/81/245 83/83/246 91/91/247 90/89/248
s off
f 83/83/249 84/118/250 92/117/251 91/91/252
f 84/84/253 85/85/254 93/93/255 92/92/256
s 11
f 85/85/257 86/86/258 94/94/259 93/93/260
s 12
f 86/86/261 87/87/262 95/95/263 94/94/264
s off
f 87/87/265 88/88/266 96/96/267 95/95/268
f 88/88/269 81/82/270 89/90/271 96/96/272
s 9
f 89/90/244 90/89/243 98/97/273 97/98/274
s 10
f 90/89/248 91/91/247 99/99/275 98/97/276
s off
f 91/91/277 92/117/278 100/115/279 99/99/280
f 92/92/281 93/93/282 101/101/283 100/100/284
s 11
f 93/93/260 94/94/259 102/102/285 101/101/286
s 12
f 94/94/264 95/95/263 103/103/287 102/102/288
s off
f 95/95/289 96/96/290 104/104/291 103/103/292
f 96/96/293 89/90/294 97/98/295 104/104/296
s 9
f 97/98/274 98/97/273 106/105/297 105/106/298
s 10
f 98/97/276 99/99/275 107/107/299 106/105/300
s off
f 99/99/301 100/115/302 108/116/303 107/107/304
f 100/100/305 101/101/306 109/109/307 108/108/308
s 11
f 101/101/286 102/102/285 110/110/309 109/109/310
s 12
f 102/102/288 103/103/287 111/111/311 110/110/312
s off
f 103/103/313 104/104/314 112/112/315 111/111/316
f 104/104/317 97/98/318 105/106/319 112/112/320
