# This file uses feet as units for non-parametric coordinates.

mtllib SteelBeam3.mtl
g default
v -118.193069 12.999272 188.933746
v -87.234726 21.373579 187.586151
v -126.332962 17.885168 -186.666260
v -94.262024 17.885168 -188.013885
v -109.811371 -17.986366 188.933746
v -78.853027 -9.612060 187.586151
v -126.332962 -14.214095 -186.666260
v -94.262024 -14.214090 -188.013885
v -121.852432 -14.214094 -186.854523
v -121.852432 17.885168 -186.854523
v -113.867935 14.169225 188.745483
v -105.486252 -16.816412 188.745483
v -98.941818 -14.214094 -187.817200
v -98.941818 17.885168 -187.817261
v -91.752167 20.151598 187.782806
v -83.370468 -10.834039 187.782806
v -98.941818 6.393634 -187.817200
v -94.262039 6.720607 -188.013885
v -110.867310 3.076373 188.745483
v -115.277771 2.222046 188.933746
v -126.332962 6.720607 -186.666260
v -84.319473 10.596351 187.586151
v -121.852432 6.393634 -186.854523
v -88.751526 9.058745 187.782806
v -98.941818 -3.005272 -187.817200
v -94.262024 -3.288067 -188.013885
v -108.413071 -5.996459 188.745483
v -112.664322 -7.439398 188.933746
v -126.332962 -3.288072 -186.666260
v -81.706009 0.934911 187.586151
v -121.852448 -3.005272 -186.854523
v -86.297287 -0.014088 187.782806
v -127.743011 10.315795 101.144852
v -132.058121 9.109743 101.333092
v -119.075653 -20.289036 99.341560
v -123.397888 -21.751234 101.002319
v -126.101486 -10.950643 98.559288
v -92.531403 -13.171844 99.974289
v -95.350296 -2.630038 98.882217
v -101.171234 17.742418 99.985535
v -105.678268 16.482737 100.182175
v -96.972794 -14.345984 99.157753
v -128.929703 -1.513451 100.324997
v -98.069931 7.007257 99.361725
v -102.444916 5.609990 97.295280
v -123.651810 0.255673 96.394165
v -99.831268 -3.784610 93.824486
v -120.922623 -9.048821 94.848175
v -125.610062 10.900289 149.335938
v -121.291626 12.094308 149.147705
v -123.590027 16.816185 -71.760437
v -129.103821 14.794371 -71.487030
v -125.896484 -16.640110 -72.100052
v -122.238724 -14.991945 -72.653381
v -112.737823 -18.843752 149.140167
v -117.056290 -20.037771 149.328430
v -119.967865 -9.506996 149.330963
v -126.970947 -6.257911 -72.608284
v -86.145584 -11.491215 147.980865
v -95.054062 -13.819853 -73.054710
v -95.237518 -3.160714 -73.285515
v -89.057159 -0.960444 147.983368
v -99.209869 18.199728 148.184998
v -94.699371 19.446842 147.988342
v -95.503876 17.952715 -72.346420
v -100.243240 17.814413 -72.362282
v -99.380432 -13.880816 -73.236397
v -90.656067 -12.738327 148.177490
v -128.037888 3.683369 -72.219696
v -122.634949 0.139616 149.333313
v -91.724274 8.686166 147.985748
v -95.531631 6.830084 -73.073135
v -118.229385 1.018487 149.144958
v -96.147598 7.123908 148.182312
v -100.814148 6.638685 -73.408165
v -122.270828 5.678149 -73.082016
v -121.651199 -4.524318 -73.558205
v -100.531448 -3.413666 -74.141937
v -93.643021 -1.934987 148.180115
v -115.724747 -8.040412 149.142792
vt 0.688880 0.395058
vt 0.687929 0.406261
vt 0.238815 0.394005
vt 0.241438 0.382178
vt 0.755151 0.571860
vt 0.883539 0.572319
vt 0.883363 0.601419
vt 0.741253 0.600242
vt 0.757976 0.512899
vt 0.309768 0.512651
vt 0.307234 0.483581
vt 0.750455 0.483455
vt 0.303008 0.224186
vt 0.315169 0.224920
vt 0.315169 0.249323
vt 0.303008 0.250171
vt 0.303008 0.195819
vt 0.315169 0.195819
vt 0.374704 0.224920
vt 0.386346 0.224186
vt 0.386346 0.250171
vt 0.374704 0.249323
vt 0.374703 0.195819
vt 0.386346 0.195819
vt 0.386347 0.279158
vt 0.374704 0.279158
vt 0.315168 0.279158
vt 0.303008 0.279158
vt 0.113563 0.405857
vt 0.113567 0.393696
vt 0.691871 0.629913
vt 0.691433 0.684840
vt 0.255558 0.671101
vt 0.254748 0.614606
vt 0.685730 0.287904
vt 0.685444 0.275597
vt 0.985625 0.266393
vt 0.985357 0.278550
vt 0.243515 0.934980
vt 0.690481 0.934025
vt 0.689904 0.959977
vt 0.242214 0.960985
vt 0.690492 0.779877
vt 0.689654 0.724114
vt 0.986407 0.710256
vt 0.985712 0.769787
vt 0.010000 0.530478
vt 0.308828 0.525917
vt 0.306059 0.555107
vt 0.010713 0.560304
vt 0.248010 0.863406
vt 0.115191 0.861434
vt 0.115674 0.835468
vt 0.244002 0.837723
vt 0.010529 0.859299
vt 0.010994 0.833335
vt 0.306882 0.460353
vt 0.010380 0.462169
vt 0.010000 0.433070
vt 0.304176 0.433167
vt 0.113408 0.623716
vt 0.113964 0.683247
vt 0.010555 0.699591
vt 0.010000 0.640059
vt 0.753642 0.468449
vt 0.741528 0.439055
vt 0.010000 0.307597
vt 0.010287 0.295958
vt 0.113424 0.314191
vt 0.113138 0.325830
vt 0.238337 0.329385
vt 0.238053 0.341024
vt 0.279358 0.255250
vt 0.291519 0.256098
vt 0.291519 0.285085
vt 0.279359 0.285085
vt 0.208181 0.230113
vt 0.219823 0.230847
vt 0.219823 0.255250
vt 0.208180 0.256098
vt 0.208181 0.201746
vt 0.219825 0.201746
vt 0.219823 0.285085
vt 0.208180 0.285085
vt 0.279358 0.201746
vt 0.291519 0.201746
vt 0.291519 0.230113
vt 0.279358 0.230847
vt 0.113303 0.786901
vt 0.114227 0.727374
vt 0.246743 0.740677
vt 0.250595 0.797382
vt 0.238137 0.311390
vt 0.238405 0.299233
vt 0.988720 0.859309
vt 0.692542 0.860433
vt 0.692084 0.834455
vt 0.989317 0.833335
vt 0.307528 0.573833
vt 0.305163 0.601171
vt 0.113186 0.296510
vt 0.113454 0.284352
vt 0.010000 0.769784
vt 0.010923 0.710256
vt 0.689926 0.906341
vt 0.988364 0.905430
vt 0.988322 0.933793
vt 0.687111 0.306498
vt 0.686637 0.321754
vt 0.985787 0.295957
vt 0.985534 0.307597
vt 0.240761 0.906631
vt 0.986217 0.379758
vt 0.986224 0.391401
vt 0.690016 0.378107
vt 0.688950 0.367646
vt 0.243401 0.364124
vt 0.239554 0.352119
vt 0.010128 0.959793
vt 0.114827 0.960424
vt 0.114714 0.989403
vt 0.010000 0.988764
vt 0.758164 0.530289
vt 0.884003 0.530410
vt 0.883966 0.560244
vt 0.746289 0.558682
vt 0.010000 0.278551
vt 0.010268 0.266393
vt 0.883807 0.512008
vt 0.883631 0.482174
vt 0.988740 0.530478
vt 0.988674 0.560313
vt 0.114975 0.906089
vt 0.114915 0.934453
vt 0.113545 0.375885
vt 0.113512 0.364242
vt 0.010034 0.391401
vt 0.010000 0.379758
vt 0.010317 0.905466
vt 0.010228 0.933826
vt 0.883991 0.465331
vt 0.883133 0.436243
vt 0.240526 0.990000
vt 0.010000 0.421035
vt 0.010005 0.408874
vt 0.010043 0.572699
vt 0.010000 0.601800
vt 0.988206 0.572699
vt 0.988055 0.601799
vt 0.988540 0.511141
vt 0.988340 0.481307
vt 0.985871 0.640057
vt 0.986227 0.699591
vt 0.988309 0.959775
vt 0.988324 0.988764
vt 0.688064 0.988860
vt 0.241998 0.808916
vt 0.690843 0.805438
vt 0.990000 0.804362
vt 0.986045 0.408874
vt 0.986037 0.421035
vt 0.988611 0.462169
vt 0.987778 0.433080
vt 0.690661 0.887502
vt 0.241181 0.892209
vt 0.988114 0.887668
vt 0.114614 0.889787
vt 0.010000 0.887644
vt 0.010000 0.511141
vt 0.010165 0.481306
vt 0.011506 0.804362
vt 0.116209 0.806490
vn 0.139655 -0.990199 -0.001469
vn 0.139655 -0.990199 -0.001469
vn 0.139655 -0.990199 -0.001469
vn 0.139655 -0.990199 -0.001469
vn -0.964518 -0.232840 0.124462
vn -0.964518 -0.232840 0.124462
vn -0.964518 -0.232840 0.124462
vn -0.964518 -0.232840 0.124462
vn -0.993008 -0.116121 -0.021240
vn -0.993008 -0.116121 -0.021240
vn -0.993008 -0.116121 -0.021240
vn -0.993008 -0.116121 -0.021240
vn -0.041992 0.000000 -0.999118
vn -0.041988 0.000000 -0.999118
vn -0.041986 -0.000001 -0.999118
vn -0.041988 -0.000001 -0.999118
vn -0.041992 0.000000 -0.999118
vn -0.041992 0.000000 -0.999118
vn -0.041988 0.000000 -0.999118
vn -0.041992 0.000000 -0.999118
vn -0.041981 0.000000 -0.999118
vn -0.041981 0.000000 -0.999118
vn -0.041981 0.000000 -0.999118
vn -0.041981 0.000000 -0.999118
vn -0.041988 0.000000 -0.999118
vn -0.041981 0.000000 -0.999118
vn -0.041981 0.000000 -0.999118
vn -0.041986 -0.000001 -0.999118
vn -0.041981 0.000000 -0.999119
vn -0.041981 0.000000 -0.999119
vn -0.041981 0.000000 -0.999118
vn -0.041981 0.000000 -0.999118
vn -0.041981 0.000000 -0.999118
vn -0.041981 0.000000 -0.999118
vn -0.041981 0.000000 -0.999118
vn -0.041981 0.000000 -0.999118
vn -0.041988 -0.000001 -0.999118
vn -0.041986 -0.000001 -0.999118
vn -0.041985 -0.000003 -0.999118
vn -0.041985 -0.000003 -0.999118
vn 0.261188 -0.965287 -0.001480
vn 0.261188 -0.965287 -0.001480
vn 0.261188 -0.965287 -0.001480
vn 0.261188 -0.965287 -0.001480
vn 0.148754 -0.988760 -0.015022
vn 0.148754 -0.988760 -0.015022
vn 0.148754 -0.988760 -0.015022
vn 0.148754 -0.988760 -0.015022
vn -0.014684 0.999892 -0.000148
vn -0.014684 0.999892 -0.000148
vn -0.014684 0.999892 -0.000148
vn -0.014684 0.999892 -0.000148
vn 0.988429 0.151509 0.007293
vn 0.988429 0.151509 0.007293
vn 0.988429 0.151509 0.007293
vn 0.988429 0.151509 0.007293
vn -0.021591 0.999765 0.001844
vn -0.021591 0.999765 0.001844
vn -0.021591 0.999765 0.001844
vn -0.021591 0.999765 0.001844
vn 0.998290 0.057620 0.009853
vn 0.998290 0.057620 0.009853
vn 0.998290 0.057620 0.009853
vn 0.998290 0.057620 0.009853
vn -0.949954 -0.285328 0.127179
vn -0.949954 -0.285328 0.127179
vn -0.949954 -0.285328 0.127179
vn -0.949954 -0.285328 0.127179
vn -0.947204 -0.259073 0.188905
vn -0.947204 -0.259073 0.188905
vn -0.947204 -0.259073 0.188905
vn -0.947204 -0.259073 0.188905
vn 0.999633 -0.027071 0.000540
vn 0.999633 -0.027071 0.000540
vn 0.999633 -0.027071 0.000540
vn 0.999633 -0.027071 0.000540
vn 0.263785 -0.964581 -0.000530
vn 0.263785 -0.964581 -0.000530
vn 0.263785 -0.964581 -0.000530
vn 0.263785 -0.964581 -0.000530
vn 0.998411 0.055485 -0.009813
vn 0.998411 0.055485 -0.009813
vn 0.998411 0.055485 -0.009813
vn 0.998411 0.055485 -0.009813
vn -0.263863 0.964559 -0.001390
vn -0.263863 0.964559 -0.001390
vn -0.263863 0.964559 -0.001390
vn -0.263863 0.964559 -0.001390
vn -0.267830 0.963466 0.000169
vn -0.267830 0.963466 0.000169
vn -0.267830 0.963466 0.000169
vn -0.267830 0.963466 0.000169
vn 0.040527 0.010963 0.999118
vn 0.040529 0.010963 0.999118
vn 0.040529 0.010963 0.999118
vn 0.040529 0.010963 0.999118
vn 0.040524 0.010962 0.999118
vn 0.040525 0.010962 0.999118
vn 0.040525 0.010962 0.999118
vn 0.040524 0.010962 0.999118
vn 0.040524 0.010962 0.999118
vn 0.040524 0.010962 0.999118
vn 0.040525 0.010962 0.999118
vn 0.040524 0.010962 0.999118
vn 0.040524 0.010962 0.999118
vn 0.040525 0.010962 0.999118
vn 0.040524 0.010962 0.999118
vn 0.040524 0.010962 0.999118
vn 0.040529 0.010963 0.999118
vn 0.040529 0.010963 0.999118
vn 0.040529 0.010963 0.999118
vn 0.040527 0.010963 0.999118
vn 0.040525 0.010962 0.999118
vn 0.040527 0.010963 0.999118
vn 0.040527 0.010963 0.999118
vn 0.040525 0.010962 0.999118
vn 0.040527 0.010963 0.999118
vn 0.040529 0.010963 0.999118
vn 0.040529 0.010963 0.999118
vn 0.040527 0.010963 0.999118
vn -0.255895 0.966674 0.007701
vn -0.255895 0.966674 0.007701
vn -0.255895 0.966674 0.007701
vn -0.255895 0.966674 0.007701
vn -0.149501 0.988762 -0.000392
vn -0.149501 0.988762 -0.000392
vn -0.149501 0.988762 -0.000392
vn -0.149501 0.988762 -0.000392
vn -0.998517 -0.053175 -0.011636
vn -0.998517 -0.053175 -0.011636
vn -0.998517 -0.053175 -0.011636
vn -0.998517 -0.053175 -0.011636
vn -0.982730 -0.184849 0.008519
vn -0.982730 -0.184849 0.008519
vn -0.982730 -0.184849 0.008519
vn -0.982730 -0.184849 0.008519
vn -0.267763 0.963483 0.001755
vn -0.267763 0.963483 0.001755
vn -0.267763 0.963483 0.001755
vn -0.267763 0.963483 0.001755
vn -0.263785 0.964581 0.000526
vn -0.263785 0.964581 0.000526
vn -0.263785 0.964581 0.000526
vn -0.263785 0.964581 0.000526
vn 0.999934 0.008581 0.007675
vn 0.999934 0.008581 0.007675
vn 0.999934 0.008581 0.007675
vn 0.999934 0.008581 0.007675
vn -0.310747 0.950106 0.027098
vn -0.310747 0.950106 0.027098
vn -0.310747 0.950106 0.027098
vn -0.310747 0.950106 0.027098
vn -0.197647 0.980176 0.013837
vn -0.197647 0.980176 0.013837
vn -0.197647 0.980176 0.013837
vn -0.197647 0.980176 0.013837
vn 0.990158 0.139759 -0.007390
vn 0.990158 0.139759 -0.007390
vn 0.990158 0.139759 -0.007390
vn 0.990158 0.139759 -0.007390
vn 0.197266 -0.980253 -0.013772
vn 0.197266 -0.980253 -0.013772
vn 0.197266 -0.980253 -0.013772
vn 0.197266 -0.980253 -0.013772
vn 0.354746 -0.934344 -0.034000
vn 0.354746 -0.934344 -0.034000
vn 0.354746 -0.934344 -0.034000
vn 0.354746 -0.934344 -0.034000
vn 0.254613 -0.967042 -0.001245
vn 0.254613 -0.967042 -0.001245
vn 0.254613 -0.967042 -0.001245
vn 0.254613 -0.967042 -0.001245
vn 0.946938 0.258999 -0.190335
vn 0.946938 0.258999 -0.190335
vn 0.946938 0.258999 -0.190335
vn 0.946938 0.258999 -0.190335
vn -0.146628 0.989038 0.017458
vn -0.146628 0.989038 0.017458
vn -0.146628 0.989038 0.017458
vn -0.146628 0.989038 0.017458
vn -0.980497 -0.196449 -0.005716
vn -0.980497 -0.196449 -0.005716
vn -0.980497 -0.196449 -0.005716
vn -0.980497 -0.196449 -0.005716
vn 0.932152 0.342133 -0.118484
vn 0.932152 0.342133 -0.118484
vn 0.932152 0.342133 -0.118484
vn 0.932152 0.342133 -0.118484
vn -0.263707 0.964600 0.002447
vn -0.263707 0.964600 0.002447
vn -0.263707 0.964600 0.002447
vn -0.263707 0.964600 0.002447
vn -0.948112 -0.289310 0.131844
vn -0.948112 -0.289310 0.131844
vn -0.948112 -0.289310 0.131844
vn -0.948112 -0.289310 0.131844
vn 0.946944 0.259001 -0.190303
vn 0.946944 0.259001 -0.190303
vn 0.946944 0.259001 -0.190303
vn 0.946944 0.259001 -0.190303
vn 0.958006 0.253600 -0.133832
vn 0.958006 0.253600 -0.133832
vn 0.958006 0.253600 -0.133832
vn 0.958006 0.253600 -0.133832
vn 0.292460 -0.956252 -0.007008
vn 0.292460 -0.956252 -0.007008
vn 0.292460 -0.956252 -0.007008
vn 0.292460 -0.956252 -0.007008
vn 0.263862 -0.964559 0.001378
vn 0.263862 -0.964559 0.001378
vn 0.263862 -0.964559 0.001378
vn 0.263862 -0.964559 0.001378
vn 0.947462 0.259144 -0.187512
vn 0.947462 0.259144 -0.187512
vn 0.947462 0.259144 -0.187512
vn 0.947462 0.259144 -0.187512
vn 0.975133 0.190903 -0.112565
vn 0.975133 0.190903 -0.112565
vn 0.975133 0.190903 -0.112565
vn 0.975133 0.190903 -0.112565
vn 0.952322 0.273160 -0.135890
vn 0.952322 0.273160 -0.135890
vn 0.952322 0.273160 -0.135890
vn 0.952322 0.273160 -0.135890
vn 0.263706 -0.964600 -0.002460
vn 0.263706 -0.964600 -0.002460
vn 0.263706 -0.964600 -0.002460
vn 0.263706 -0.964600 -0.002460
vn -0.998534 -0.053395 -0.008890
vn -0.998534 -0.053395 -0.008890
vn -0.998534 -0.053395 -0.008890
vn -0.998534 -0.053395 -0.008890
vn -0.947458 -0.259144 0.187530
vn -0.947458 -0.259144 0.187530
vn -0.947458 -0.259144 0.187530
vn -0.947458 -0.259144 0.187530
vn -0.946942 -0.259002 0.190311
vn -0.946942 -0.259002 0.190311
vn -0.946942 -0.259002 0.190311
vn -0.946942 -0.259002 0.190311
vn 0.024923 -0.999655 -0.008337
vn 0.024923 -0.999655 -0.008337
vn 0.024923 -0.999655 -0.008337
vn 0.024923 -0.999655 -0.008337
vn 0.999846 0.014601 0.009759
vn 0.999846 0.014601 0.009759
vn 0.999846 0.014601 0.009759
vn 0.999846 0.014601 0.009759
vn 0.999940 -0.001601 0.010891
vn 0.999940 -0.001601 0.010891
vn 0.999940 -0.001601 0.010891
vn 0.999940 -0.001601 0.010891
vn -0.981994 -0.188158 -0.016864
vn -0.981994 -0.188158 -0.016864
vn -0.981994 -0.188158 -0.016864
vn -0.981994 -0.188158 -0.016864
vn -0.998675 -0.047107 -0.020723
vn -0.998675 -0.047107 -0.020723
vn -0.998675 -0.047107 -0.020723
vn -0.998675 -0.047107 -0.020723
vn 0.006775 -0.999972 0.003206
vn 0.006775 -0.999972 0.003206
vn 0.006775 -0.999972 0.003206
vn 0.006775 -0.999972 0.003206
vn 0.947460 0.259143 -0.187521
vn 0.947460 0.259143 -0.187521
vn 0.947460 0.259143 -0.187521
vn 0.947460 0.259143 -0.187521
vn 0.947202 0.259074 -0.188916
vn 0.947202 0.259074 -0.188916
vn 0.947202 0.259074 -0.188916
vn 0.947202 0.259074 -0.188916
vn -0.984565 -0.174955 0.004650
vn -0.984565 -0.174955 0.004650
vn -0.984565 -0.174955 0.004650
vn -0.984565 -0.174955 0.004650
vn -0.998727 -0.050410 -0.002070
vn -0.998727 -0.050410 -0.002070
vn -0.998727 -0.050410 -0.002070
vn -0.998727 -0.050410 -0.002070
vn 0.970288 0.240752 0.024067
vn 0.970288 0.240752 0.024067
vn 0.970288 0.240752 0.024067
vn 0.970288 0.240752 0.024067
vn -0.947464 -0.259143 0.187501
vn -0.947464 -0.259143 0.187501
vn -0.947464 -0.259143 0.187501
vn -0.947464 -0.259143 0.187501
vn -0.962532 -0.238640 0.128774
vn -0.962532 -0.238640 0.128774
vn -0.962532 -0.238640 0.128774
vn -0.962532 -0.238640 0.128774
vn 0.990182 0.137778 0.023580
vn 0.990182 0.137778 0.023580
vn 0.990182 0.137778 0.023580
vn 0.990182 0.137778 0.023580
vn -0.999571 0.025813 -0.013821
vn -0.999571 0.025813 -0.013821
vn -0.999571 0.025813 -0.013821
vn -0.999571 0.025813 -0.013821
vn -0.946940 -0.259002 0.190323
vn -0.946940 -0.259002 0.190323
vn -0.946940 -0.259002 0.190323
vn -0.946940 -0.259002 0.190323
vn -0.951121 -0.277847 0.134796
vn -0.951121 -0.277847 0.134796
vn -0.951121 -0.277847 0.134796
vn -0.951121 -0.277847 0.134796
vn 0.953762 0.269736 -0.132592
vn 0.953762 0.269736 -0.132592
vn 0.953762 0.269736 -0.132592
vn 0.953762 0.269736 -0.132592
s off
g SteelBeam10:ZBrushPolyMesh3D
usemtl initialShadingGroup
f 67/1/1 60/2/2 38/3/3 42/4/4
f 42/5/5 68/6/6 79/7/7 47/8/8
f 41/9/9 66/10/10 75/11/11 45/12/12
f 26/13/13 25/14/14 17/15/15 18/16/16
f 8/17/17 13/18/18 25/14/19 26/13/20
f 31/19/21 29/20/22 21/21/23 23/22/24
f 25/14/25 31/19/26 23/22/27 17/15/28
f 9/23/29 7/24/30 29/20/31 31/19/32
f 23/22/33 21/21/34 3/25/35 10/26/36
f 18/16/37 17/15/38 14/27/39 4/28/40
f 42/4/41 38/3/42 59/29/43 68/30/44
f 77/31/45 78/32/46 47/33/47 48/34/48
f 66/35/49 65/36/50 4/37/51 14/38/52
f 39/39/53 61/40/54 72/41/55 44/42/56
f 76/43/57 75/44/58 17/45/59 23/46/60
f 10/47/61 51/48/62 76/49/63 23/50/64
f 37/51/65 57/52/66 70/53/67 43/54/68
f 57/52/69 28/55/70 20/56/71 70/53/72
f 54/57/73 9/58/74 31/59/75 77/60/76
f 80/61/77 79/62/78 32/63/79 27/64/80
f 35/65/81 54/57/82 77/60/83 48/66/84
f 1/67/85 11/68/86 50/69/87 49/70/88
f 49/70/89 50/69/90 33/71/91 34/72/92
f 24/73/93 22/74/94 2/75/95 15/76/96
f 28/77/97 27/78/98 19/79/99 20/80/100
f 5/81/101 12/82/102 27/78/103 28/77/104
f 20/80/105 19/79/106 11/83/107 1/84/108
f 16/85/109 6/86/110 30/87/111 32/88/112
f 27/78/113 32/88/114 24/73/115 19/79/116
f 32/88/117 30/87/118 22/74/119 24/73/120
f 73/89/121 74/90/122 45/91/123 46/92/124
f 41/93/125 40/94/126 65/36/127 66/35/128
f 29/95/129 58/96/130 69/97/131 21/98/132
f 67/99/133 42/5/134 47/8/135 78/100/136
f 63/101/137 64/102/138 40/94/139 41/93/140
f 19/103/141 24/104/142 74/90/143 73/89/144
f 60/105/145 8/106/146 26/107/147 61/40/148
f 34/72/149 33/71/150 51/108/151 52/109/152
f 52/109/153 51/108/154 10/110/155 3/111/156
f 38/112/157 60/105/158 61/40/159 39/39/160
f 7/113/161 9/114/162 54/115/163 53/116/164
f 53/116/165 54/115/166 35/117/167 36/118/168
f 48/34/169 47/33/170 79/62/171 80/61/172
f 22/119/173 71/120/174 64/121/175 2/122/176
f 46/92/177 45/91/178 75/44/179 76/43/180
f 58/96/181 37/51/182 43/54/183 69/97/184
f 33/123/185 50/124/186 73/125/187 46/126/188
f 15/127/189 2/128/190 64/102/191 63/101/192
f 63/129/193 41/9/194 45/12/195 74/130/196
f 50/124/197 11/131/198 19/132/199 73/125/200
f 59/133/201 38/112/202 39/39/203 62/134/204
f 36/118/205 35/117/206 55/135/207 56/136/208
f 56/136/209 55/135/210 12/137/211 5/138/212
f 6/139/213 59/133/214 62/134/215 30/140/216
f 55/141/217 35/65/218 48/66/219 80/142/220
f 71/120/221 44/42/222 40/143/223 64/121/224
f 68/30/225 59/29/226 6/144/227 16/145/228
f 13/146/229 67/99/230 78/100/231 25/147/232
f 68/6/233 16/148/234 32/149/235 79/7/236
f 15/150/237 63/129/238 74/130/239 24/151/240
f 31/152/241 25/153/242 78/32/243 77/31/244
f 61/40/245 26/107/246 18/154/247 72/41/248
f 72/41/249 18/154/250 4/155/251 65/156/252
f 69/97/253 43/54/254 34/157/255 52/158/256
f 21/98/257 69/97/258 52/158/259 3/159/260
f 13/160/261 8/161/262 60/2/263 67/1/264
f 12/162/265 55/141/266 80/142/267 27/163/268
f 30/140/269 62/134/270 71/120/271 22/119/272
f 53/164/273 36/165/274 37/51/275 58/96/276
f 7/166/277 53/164/278 58/96/279 29/95/280
f 51/48/281 33/123/282 46/126/283 76/49/284
f 56/167/285 5/168/286 28/55/287 57/52/288
f 36/165/289 56/167/290 57/52/291 37/51/292
f 44/42/293 72/41/294 65/156/295 40/143/296
f 66/10/297 14/169/298 17/170/299 75/11/300
f 70/53/301 20/56/302 1/171/303 49/172/304
f 43/54/305 70/53/306 49/172/307 34/157/308
f 62/134/309 39/39/310 44/42/311 71/120/312
